G75*
G70*
%OFA0B0*%
%FSLAX24Y24*%
%IPPOS*%
%LPD*%
%AMOC8*
5,1,8,0,0,1.08239X$1,22.5*
%
%ADD10OC8,0.0827*%
%ADD11R,0.0740X0.0740*%
%ADD12C,0.0740*%
%ADD13C,0.0705*%
%ADD14C,0.0436*%
%ADD15C,0.0240*%
%ADD16C,0.0320*%
%ADD17C,0.0315*%
%ADD18OC8,0.1266*%
%ADD19C,0.0400*%
D10*
X003143Y009888D03*
X005111Y009888D03*
X010033Y009888D03*
X013970Y009888D03*
D11*
X023918Y020466D03*
X023918Y021451D03*
D12*
X024918Y021451D03*
X025918Y021451D03*
X026918Y021451D03*
X026918Y020466D03*
X025918Y020466D03*
X024918Y020466D03*
X024903Y019285D03*
X023918Y019285D03*
X023918Y018285D03*
X024903Y018285D03*
X020769Y020466D03*
X019769Y020466D03*
X018769Y020466D03*
X017769Y020466D03*
X016769Y020466D03*
X015769Y020466D03*
X015769Y021451D03*
X016769Y021451D03*
X017769Y021451D03*
X018769Y021451D03*
X019769Y021451D03*
X020769Y021451D03*
X013879Y021451D03*
X012911Y021451D03*
X011911Y021451D03*
X011139Y007277D03*
X010139Y007277D03*
X004430Y007277D03*
X003430Y007277D03*
X010139Y002159D03*
X011139Y002159D03*
D13*
X023960Y001840D02*
X024665Y001840D01*
X024665Y004840D02*
X023960Y004840D01*
D14*
X023918Y007671D03*
X021359Y007671D03*
X018210Y007671D03*
X014863Y007671D03*
X013485Y006293D03*
X012304Y005309D03*
X014863Y003340D03*
X015848Y002159D03*
X012304Y002159D03*
X008564Y005151D03*
X009155Y005506D03*
X006399Y008852D03*
X002265Y007277D03*
X004627Y004915D03*
X003446Y002553D03*
X003446Y001963D03*
X013485Y011805D03*
X012698Y012986D03*
X010926Y012986D03*
X010926Y014758D03*
X012107Y014758D03*
X011911Y018104D03*
X013879Y018695D03*
X015651Y018695D03*
X016241Y017120D03*
X016241Y014364D03*
X024706Y013774D03*
X024706Y014955D03*
X024706Y016923D03*
X024706Y012396D03*
X022737Y021648D03*
X004233Y017317D03*
X003446Y013577D03*
X002855Y012986D03*
D15*
X002855Y018892D01*
X005414Y021451D01*
X011911Y021451D01*
X012320Y020860D02*
X005611Y020860D01*
X003446Y018695D01*
X003446Y013577D01*
X010033Y009888D02*
X010139Y009837D01*
X012698Y009837D01*
X013485Y010624D01*
X013485Y011805D01*
X012698Y012986D02*
X010926Y012986D01*
X010926Y014758D02*
X012107Y014758D01*
X011911Y018104D02*
X011911Y019482D01*
X012895Y020466D01*
X015769Y020466D01*
X015651Y020466D01*
X015651Y018695D02*
X015651Y009640D01*
X014076Y008065D01*
X014076Y006884D01*
X013485Y006293D01*
X014863Y007671D02*
X016438Y007671D01*
X016438Y002159D01*
X015848Y002159D01*
X009155Y003340D02*
X007777Y001963D01*
X003446Y001963D01*
X003446Y002553D02*
X007580Y002553D01*
X008564Y003537D01*
X008564Y005151D01*
X009155Y005506D02*
X009155Y003340D01*
X024706Y012396D02*
X024706Y013774D01*
X024706Y014955D02*
X024706Y016923D01*
X023131Y016923D01*
X022540Y017514D01*
X022540Y020073D01*
X022147Y020466D01*
X020769Y020466D01*
X023918Y021451D02*
X024918Y021451D01*
X025918Y021451D01*
X026918Y021451D01*
X012911Y021451D02*
X012320Y020860D01*
D16*
X015769Y020466D02*
X016769Y020466D01*
X017769Y020466D01*
X018769Y020466D01*
X019769Y020466D01*
X020769Y020466D01*
X020769Y021451D02*
X019769Y021451D01*
X018769Y021451D01*
X017769Y021451D01*
X016769Y021451D01*
X015769Y021451D01*
X023918Y020466D02*
X024918Y020466D01*
X025918Y020466D01*
X026918Y020466D01*
D17*
X001524Y022041D02*
X001524Y001222D01*
X023517Y001222D01*
X023324Y001416D01*
X023210Y001691D01*
X023210Y001990D01*
X023324Y002265D01*
X023535Y002476D01*
X023810Y002590D01*
X024814Y002590D01*
X025089Y002476D01*
X025300Y002265D01*
X025415Y001990D01*
X025415Y001691D01*
X025300Y001416D01*
X025107Y001222D01*
X027809Y001222D01*
X027809Y022041D01*
X027131Y022041D01*
X027159Y022032D01*
X027247Y021987D01*
X027327Y021929D01*
X027397Y021859D01*
X027455Y021780D01*
X027500Y021692D01*
X027530Y021598D01*
X027546Y021500D01*
X027546Y021451D01*
X026919Y021451D01*
X026919Y021450D01*
X027546Y021450D01*
X027546Y021401D01*
X027530Y021304D01*
X027500Y021210D01*
X027455Y021122D01*
X027410Y021060D01*
X027569Y020901D01*
X027686Y020619D01*
X027686Y020314D01*
X027569Y020032D01*
X027353Y019816D01*
X027071Y019699D01*
X026766Y019699D01*
X026484Y019816D01*
X026418Y019881D01*
X026353Y019816D01*
X026071Y019699D01*
X025766Y019699D01*
X025484Y019816D01*
X025418Y019881D01*
X025405Y019868D01*
X025553Y019720D01*
X025670Y019438D01*
X025670Y019133D01*
X025553Y018851D01*
X025488Y018785D01*
X025553Y018720D01*
X025670Y018438D01*
X025670Y018133D01*
X025553Y017851D01*
X025337Y017635D01*
X025055Y017518D01*
X024878Y017518D01*
X025054Y017445D01*
X025227Y017272D01*
X025321Y017046D01*
X025321Y016801D01*
X025227Y016575D01*
X025223Y016570D01*
X025223Y015307D01*
X025227Y015303D01*
X025321Y015077D01*
X025321Y014832D01*
X025227Y014606D01*
X025054Y014433D01*
X024888Y014364D01*
X025054Y014295D01*
X025227Y014122D01*
X025321Y013896D01*
X025321Y013651D01*
X025227Y013425D01*
X025223Y013421D01*
X025223Y012748D01*
X025227Y012744D01*
X025321Y012518D01*
X025321Y012273D01*
X025227Y012047D01*
X025054Y011874D01*
X024828Y011780D01*
X024583Y011780D01*
X024357Y011874D01*
X024184Y012047D01*
X024091Y012273D01*
X024091Y012518D01*
X024184Y012744D01*
X024188Y012748D01*
X024188Y013421D01*
X024184Y013425D01*
X024091Y013651D01*
X024091Y013896D01*
X024184Y014122D01*
X024357Y014295D01*
X024524Y014364D01*
X024357Y014433D01*
X024184Y014606D01*
X024091Y014832D01*
X024091Y015077D01*
X024184Y015303D01*
X024188Y015307D01*
X024188Y016406D01*
X023028Y016406D01*
X022838Y016484D01*
X022692Y016630D01*
X022102Y017221D01*
X022023Y017411D01*
X022023Y017617D01*
X022023Y019858D01*
X021932Y019949D01*
X021337Y019949D01*
X021204Y019816D01*
X020921Y019699D01*
X020616Y019699D01*
X020334Y019816D01*
X020269Y019881D01*
X020204Y019816D01*
X019921Y019699D01*
X019616Y019699D01*
X019334Y019816D01*
X019269Y019881D01*
X019204Y019816D01*
X018921Y019699D01*
X018616Y019699D01*
X018334Y019816D01*
X018269Y019881D01*
X018204Y019816D01*
X017921Y019699D01*
X017616Y019699D01*
X017334Y019816D01*
X017269Y019881D01*
X017204Y019816D01*
X016921Y019699D01*
X016616Y019699D01*
X016334Y019816D01*
X016269Y019881D01*
X016204Y019816D01*
X015921Y019699D01*
X015616Y019699D01*
X015334Y019816D01*
X015201Y019949D01*
X013109Y019949D01*
X012428Y019268D01*
X012428Y018457D01*
X012432Y018453D01*
X012526Y018227D01*
X012526Y017982D01*
X012432Y017756D01*
X012259Y017583D01*
X012033Y017489D01*
X011788Y017489D01*
X011562Y017583D01*
X011389Y017756D01*
X011295Y017982D01*
X011295Y018227D01*
X011389Y018453D01*
X011393Y018457D01*
X011393Y019585D01*
X011472Y019775D01*
X011617Y019921D01*
X012039Y020343D01*
X005826Y020343D01*
X003963Y018480D01*
X003963Y013929D01*
X003968Y013925D01*
X004061Y013699D01*
X004061Y013454D01*
X003968Y013228D01*
X003794Y013055D01*
X003568Y012961D01*
X003471Y012961D01*
X003471Y012864D01*
X003377Y012638D01*
X003204Y012465D01*
X002978Y012371D01*
X002733Y012371D01*
X002507Y012465D01*
X002334Y012638D01*
X002240Y012864D01*
X002240Y013109D01*
X002334Y013335D01*
X002338Y013339D01*
X002338Y018789D01*
X002338Y018995D01*
X002417Y019185D01*
X005121Y021889D01*
X005312Y021968D01*
X005517Y021968D01*
X011343Y021968D01*
X011416Y022041D01*
X001524Y022041D01*
X001524Y021903D02*
X005154Y021903D01*
X004821Y021589D02*
X001524Y021589D01*
X001524Y021276D02*
X004508Y021276D01*
X004194Y020962D02*
X001524Y020962D01*
X001524Y020649D02*
X003881Y020649D01*
X003567Y020335D02*
X001524Y020335D01*
X001524Y020022D02*
X003254Y020022D01*
X002940Y019708D02*
X001524Y019708D01*
X001524Y019395D02*
X002627Y019395D01*
X002374Y019081D02*
X001524Y019081D01*
X001524Y018768D02*
X002338Y018768D01*
X002338Y018454D02*
X001524Y018454D01*
X001524Y018141D02*
X002338Y018141D01*
X002338Y017827D02*
X001524Y017827D01*
X001524Y017514D02*
X002338Y017514D01*
X002338Y017200D02*
X001524Y017200D01*
X001524Y016887D02*
X002338Y016887D01*
X002338Y016573D02*
X001524Y016573D01*
X001524Y016260D02*
X002338Y016260D01*
X002338Y015946D02*
X001524Y015946D01*
X001524Y015633D02*
X002338Y015633D01*
X002338Y015319D02*
X001524Y015319D01*
X001524Y015006D02*
X002338Y015006D01*
X002338Y014692D02*
X001524Y014692D01*
X001524Y014379D02*
X002338Y014379D01*
X002338Y014065D02*
X001524Y014065D01*
X001524Y013752D02*
X002338Y013752D01*
X002338Y013438D02*
X001524Y013438D01*
X001524Y013125D02*
X002247Y013125D01*
X002262Y012811D02*
X001524Y012811D01*
X001524Y012498D02*
X002474Y012498D01*
X003237Y012498D02*
X010545Y012498D01*
X010578Y012465D02*
X010804Y012371D01*
X011049Y012371D01*
X011275Y012465D01*
X011279Y012469D01*
X012345Y012469D01*
X012349Y012465D01*
X012576Y012371D01*
X012820Y012371D01*
X013046Y012465D01*
X013220Y012638D01*
X013313Y012864D01*
X013313Y013109D01*
X013220Y013335D01*
X013046Y013508D01*
X012820Y013601D01*
X012576Y013601D01*
X012349Y013508D01*
X012345Y013504D01*
X011279Y013504D01*
X011275Y013508D01*
X011049Y013601D01*
X010804Y013601D01*
X010578Y013508D01*
X010405Y013335D01*
X010311Y013109D01*
X010311Y012864D01*
X010405Y012638D01*
X010578Y012465D01*
X010333Y012811D02*
X003449Y012811D01*
X003864Y013125D02*
X010318Y013125D01*
X010508Y013438D02*
X004055Y013438D01*
X004039Y013752D02*
X015133Y013752D01*
X015133Y013438D02*
X013116Y013438D01*
X013306Y013125D02*
X015133Y013125D01*
X015133Y012811D02*
X013291Y012811D01*
X013080Y012498D02*
X015133Y012498D01*
X015133Y012184D02*
X013976Y012184D01*
X014007Y012154D02*
X013834Y012327D01*
X013608Y012420D01*
X013363Y012420D01*
X013137Y012327D01*
X012964Y012154D01*
X012870Y011927D01*
X012870Y011683D01*
X012964Y011456D01*
X012968Y011452D01*
X012968Y010838D01*
X012484Y010354D01*
X010713Y010354D01*
X010368Y010699D01*
X009697Y010699D01*
X009222Y010224D01*
X009222Y009552D01*
X009697Y009077D01*
X010368Y009077D01*
X010611Y009319D01*
X012595Y009319D01*
X012801Y009319D01*
X012991Y009398D01*
X013159Y009566D01*
X013159Y009552D01*
X013634Y009077D01*
X014305Y009077D01*
X014780Y009552D01*
X014780Y010224D01*
X014305Y010699D01*
X014003Y010699D01*
X014003Y010727D01*
X014003Y011452D01*
X014007Y011456D01*
X014101Y011683D01*
X014101Y011927D01*
X014007Y012154D01*
X014101Y011871D02*
X015133Y011871D01*
X015133Y011557D02*
X014049Y011557D01*
X014003Y011244D02*
X015133Y011244D01*
X015133Y010930D02*
X014003Y010930D01*
X014387Y010617D02*
X015133Y010617D01*
X015133Y010303D02*
X014701Y010303D01*
X014780Y009990D02*
X015133Y009990D01*
X015133Y009854D02*
X013637Y008358D01*
X013558Y008168D01*
X013558Y007962D01*
X013558Y007098D01*
X013369Y006908D01*
X013363Y006908D01*
X013137Y006815D01*
X012964Y006642D01*
X012870Y006416D01*
X012870Y006171D01*
X012964Y005945D01*
X013137Y005772D01*
X013363Y005678D01*
X013608Y005678D01*
X013834Y005772D01*
X014007Y005945D01*
X014101Y006171D01*
X014101Y006177D01*
X014515Y006591D01*
X014593Y006781D01*
X014593Y006987D01*
X014593Y007851D01*
X015944Y009201D01*
X016089Y009347D01*
X016168Y009537D01*
X016168Y018342D01*
X016172Y018346D01*
X016266Y018572D01*
X016266Y018817D01*
X016172Y019043D01*
X015999Y019216D01*
X015773Y019310D01*
X015528Y019310D01*
X015302Y019216D01*
X015129Y019043D01*
X015035Y018817D01*
X015035Y018572D01*
X015129Y018346D01*
X015133Y018342D01*
X015133Y009854D01*
X014955Y009676D02*
X014780Y009676D01*
X014642Y009363D02*
X014591Y009363D01*
X014328Y009049D02*
X001524Y009049D01*
X001524Y009363D02*
X002719Y009363D01*
X002865Y009217D02*
X003143Y009217D01*
X003421Y009217D01*
X003814Y009610D01*
X003814Y009887D01*
X003143Y009887D01*
X003143Y009217D01*
X003143Y009887D01*
X003143Y009887D01*
X003143Y009888D01*
X003143Y009888D01*
X003143Y010559D01*
X003421Y010559D01*
X003814Y010166D01*
X003814Y009888D01*
X003143Y009888D01*
X003143Y010559D01*
X002865Y010559D01*
X002472Y010166D01*
X002472Y009888D01*
X003142Y009888D01*
X003142Y009887D01*
X002472Y009887D01*
X002472Y009610D01*
X002865Y009217D01*
X003143Y009363D02*
X003143Y009363D01*
X003143Y009676D02*
X003143Y009676D01*
X003143Y009990D02*
X003143Y009990D01*
X003143Y010303D02*
X003143Y010303D01*
X002610Y010303D02*
X001524Y010303D01*
X001524Y009990D02*
X002472Y009990D01*
X002472Y009676D02*
X001524Y009676D01*
X001524Y010617D02*
X004694Y010617D01*
X004775Y010699D02*
X004300Y010224D01*
X004300Y009552D01*
X004775Y009077D01*
X005447Y009077D01*
X005922Y009552D01*
X005922Y010224D01*
X005447Y010699D01*
X004775Y010699D01*
X004380Y010303D02*
X003676Y010303D01*
X003814Y009990D02*
X004300Y009990D01*
X004300Y009676D02*
X003814Y009676D01*
X003566Y009363D02*
X004490Y009363D01*
X005733Y009363D02*
X009411Y009363D01*
X009222Y009676D02*
X005922Y009676D01*
X005922Y009990D02*
X009222Y009990D01*
X009301Y010303D02*
X005843Y010303D01*
X005529Y010617D02*
X009615Y010617D01*
X010450Y010617D02*
X012746Y010617D01*
X012968Y010930D02*
X001524Y010930D01*
X001524Y011244D02*
X012968Y011244D01*
X012922Y011557D02*
X001524Y011557D01*
X001524Y011871D02*
X012870Y011871D01*
X012994Y012184D02*
X001524Y012184D01*
X003963Y014065D02*
X015133Y014065D01*
X015133Y014379D02*
X012598Y014379D01*
X012629Y014409D02*
X012723Y014635D01*
X012723Y014880D01*
X012629Y015106D01*
X012456Y015279D01*
X012230Y015373D01*
X011985Y015373D01*
X011759Y015279D01*
X011755Y015275D01*
X011279Y015275D01*
X011275Y015279D01*
X011049Y015373D01*
X010804Y015373D01*
X010578Y015279D01*
X010405Y015106D01*
X010311Y014880D01*
X010311Y014635D01*
X010405Y014409D01*
X010578Y014236D01*
X010804Y014143D01*
X011049Y014143D01*
X011275Y014236D01*
X011279Y014240D01*
X011755Y014240D01*
X011759Y014236D01*
X011985Y014143D01*
X012230Y014143D01*
X012456Y014236D01*
X012629Y014409D01*
X012723Y014692D02*
X015133Y014692D01*
X015133Y015006D02*
X012671Y015006D01*
X012360Y015319D02*
X015133Y015319D01*
X015133Y015633D02*
X003963Y015633D01*
X003963Y015319D02*
X010674Y015319D01*
X011179Y015319D02*
X011855Y015319D01*
X010435Y014379D02*
X003963Y014379D01*
X003963Y014692D02*
X010311Y014692D01*
X010363Y015006D02*
X003963Y015006D01*
X003963Y015946D02*
X015133Y015946D01*
X015133Y016260D02*
X003963Y016260D01*
X003963Y016573D02*
X015133Y016573D01*
X015133Y016887D02*
X003963Y016887D01*
X003963Y017200D02*
X015133Y017200D01*
X015133Y017514D02*
X012093Y017514D01*
X012462Y017827D02*
X015133Y017827D01*
X015133Y018141D02*
X012526Y018141D01*
X012431Y018454D02*
X015084Y018454D01*
X015035Y018768D02*
X012428Y018768D01*
X012428Y019081D02*
X015167Y019081D01*
X015594Y019708D02*
X012868Y019708D01*
X012555Y019395D02*
X022023Y019395D01*
X022023Y019708D02*
X020944Y019708D01*
X020594Y019708D02*
X019944Y019708D01*
X019594Y019708D02*
X018944Y019708D01*
X018594Y019708D02*
X017944Y019708D01*
X017594Y019708D02*
X016944Y019708D01*
X016594Y019708D02*
X015944Y019708D01*
X016134Y019081D02*
X022023Y019081D01*
X022023Y018768D02*
X016266Y018768D01*
X016217Y018454D02*
X022023Y018454D01*
X022023Y018141D02*
X016168Y018141D01*
X016168Y017827D02*
X022023Y017827D01*
X022023Y017514D02*
X016168Y017514D01*
X016168Y017200D02*
X022122Y017200D01*
X022436Y016887D02*
X016168Y016887D01*
X016168Y016573D02*
X022749Y016573D01*
X023345Y017441D02*
X023058Y017728D01*
X023058Y020176D01*
X022979Y020366D01*
X022834Y020511D01*
X022440Y020905D01*
X022250Y020984D01*
X022044Y020984D01*
X021337Y020984D01*
X021261Y021060D01*
X021305Y021122D01*
X021350Y021210D01*
X021381Y021304D01*
X021396Y021401D01*
X021396Y021450D01*
X020769Y021450D01*
X020769Y021451D01*
X021396Y021451D01*
X021396Y021500D01*
X021381Y021598D01*
X021350Y021692D01*
X021305Y021780D01*
X021247Y021859D01*
X021178Y021929D01*
X021098Y021987D01*
X021010Y022032D01*
X020982Y022041D01*
X023415Y022041D01*
X023384Y022021D01*
X023348Y021985D01*
X023320Y021943D01*
X023301Y021896D01*
X023291Y021846D01*
X023291Y021451D01*
X023918Y021451D01*
X023918Y021450D01*
X023291Y021450D01*
X023291Y021141D01*
X023211Y021062D01*
X023151Y020916D01*
X023151Y020017D01*
X023211Y019871D01*
X023315Y019768D01*
X023268Y019720D01*
X023151Y019438D01*
X023151Y019133D01*
X023268Y018851D01*
X023333Y018785D01*
X023268Y018720D01*
X023151Y018438D01*
X023151Y018133D01*
X023268Y017851D01*
X023484Y017635D01*
X023766Y017518D01*
X024071Y017518D01*
X024353Y017635D01*
X024411Y017692D01*
X024468Y017635D01*
X024701Y017538D01*
X024583Y017538D01*
X024357Y017445D01*
X024353Y017441D01*
X023345Y017441D01*
X023272Y017514D02*
X024524Y017514D01*
X024888Y017514D02*
X027809Y017514D01*
X027809Y017827D02*
X025530Y017827D01*
X025670Y018141D02*
X027809Y018141D01*
X027809Y018454D02*
X025663Y018454D01*
X025506Y018768D02*
X027809Y018768D01*
X027809Y019081D02*
X025649Y019081D01*
X025670Y019395D02*
X027809Y019395D01*
X027809Y019708D02*
X027094Y019708D01*
X026743Y019708D02*
X026094Y019708D01*
X025743Y019708D02*
X025558Y019708D01*
X025418Y021052D02*
X025410Y021060D01*
X025418Y021071D01*
X025427Y021060D01*
X025418Y021052D01*
X025291Y021450D02*
X024919Y021450D01*
X024919Y021451D01*
X025291Y021451D01*
X025918Y021451D01*
X025918Y021450D01*
X025291Y021450D01*
X024918Y021450D02*
X024291Y021450D01*
X023919Y021450D01*
X023919Y021451D01*
X024291Y021451D01*
X024918Y021451D01*
X024918Y021450D01*
X024705Y022041D02*
X024422Y022041D01*
X024453Y022021D01*
X024488Y021985D01*
X024517Y021943D01*
X024519Y021936D01*
X024590Y021987D01*
X024678Y022032D01*
X024705Y022041D01*
X025131Y022041D02*
X025705Y022041D01*
X025678Y022032D01*
X025590Y021987D01*
X025510Y021929D01*
X025440Y021859D01*
X025418Y021830D01*
X025397Y021859D01*
X025327Y021929D01*
X025247Y021987D01*
X025159Y022032D01*
X025131Y022041D01*
X025354Y021903D02*
X025483Y021903D01*
X025919Y021451D02*
X026291Y021451D01*
X026918Y021451D01*
X026918Y021450D01*
X026291Y021450D01*
X025919Y021450D01*
X025919Y021451D01*
X026418Y021830D02*
X026397Y021859D01*
X026327Y021929D01*
X026247Y021987D01*
X026159Y022032D01*
X026131Y022041D01*
X026705Y022041D01*
X026678Y022032D01*
X026590Y021987D01*
X026510Y021929D01*
X026440Y021859D01*
X026418Y021830D01*
X026354Y021903D02*
X026483Y021903D01*
X026418Y021071D02*
X026410Y021060D01*
X026418Y021052D01*
X026427Y021060D01*
X026418Y021071D01*
X027508Y020962D02*
X027809Y020962D01*
X027809Y021276D02*
X027521Y021276D01*
X027532Y021589D02*
X027809Y021589D01*
X027809Y021903D02*
X027354Y021903D01*
X027674Y020649D02*
X027809Y020649D01*
X027809Y020335D02*
X027686Y020335D01*
X027809Y020022D02*
X027559Y020022D01*
X027809Y017200D02*
X025257Y017200D01*
X025321Y016887D02*
X027809Y016887D01*
X027809Y016573D02*
X025226Y016573D01*
X025223Y016260D02*
X027809Y016260D01*
X027809Y015946D02*
X025223Y015946D01*
X025223Y015633D02*
X027809Y015633D01*
X027809Y015319D02*
X025223Y015319D01*
X025321Y015006D02*
X027809Y015006D01*
X027809Y014692D02*
X025263Y014692D01*
X024923Y014379D02*
X027809Y014379D01*
X027809Y014065D02*
X025251Y014065D01*
X025321Y013752D02*
X027809Y013752D01*
X027809Y013438D02*
X025233Y013438D01*
X025223Y013125D02*
X027809Y013125D01*
X027809Y012811D02*
X025223Y012811D01*
X025321Y012498D02*
X027809Y012498D01*
X027809Y012184D02*
X025284Y012184D01*
X025046Y011871D02*
X027809Y011871D01*
X027809Y011557D02*
X016168Y011557D01*
X016168Y011871D02*
X024365Y011871D01*
X024127Y012184D02*
X016168Y012184D01*
X016168Y012498D02*
X024091Y012498D01*
X024188Y012811D02*
X016168Y012811D01*
X016168Y013125D02*
X024188Y013125D01*
X024179Y013438D02*
X016168Y013438D01*
X016168Y013752D02*
X024091Y013752D01*
X024161Y014065D02*
X016168Y014065D01*
X016168Y014379D02*
X024488Y014379D01*
X024149Y014692D02*
X016168Y014692D01*
X016168Y015006D02*
X024091Y015006D01*
X024188Y015319D02*
X016168Y015319D01*
X016168Y015633D02*
X024188Y015633D01*
X024188Y015946D02*
X016168Y015946D01*
X016168Y016260D02*
X024188Y016260D01*
X023291Y017827D02*
X023058Y017827D01*
X023058Y018141D02*
X023151Y018141D01*
X023158Y018454D02*
X023058Y018454D01*
X023058Y018768D02*
X023316Y018768D01*
X023172Y019081D02*
X023058Y019081D01*
X023058Y019395D02*
X023151Y019395D01*
X023058Y019708D02*
X023263Y019708D01*
X023151Y020022D02*
X023058Y020022D01*
X022992Y020335D02*
X023151Y020335D01*
X023151Y020649D02*
X022696Y020649D01*
X022302Y020962D02*
X023170Y020962D01*
X023291Y021276D02*
X021372Y021276D01*
X021382Y021589D02*
X023291Y021589D01*
X023304Y021903D02*
X021204Y021903D01*
X020768Y021451D02*
X020768Y021450D01*
X020396Y021450D01*
X019769Y021450D01*
X019769Y021451D01*
X020396Y021451D01*
X020768Y021451D01*
X020269Y021830D02*
X020247Y021859D01*
X020178Y021929D01*
X020098Y021987D01*
X020010Y022032D01*
X019982Y022041D01*
X020556Y022041D01*
X020528Y022032D01*
X020440Y021987D01*
X020360Y021929D01*
X020290Y021859D01*
X020269Y021830D01*
X020204Y021903D02*
X020334Y021903D01*
X019768Y021451D02*
X019768Y021450D01*
X019396Y021450D01*
X018769Y021450D01*
X018769Y021451D01*
X019396Y021451D01*
X019768Y021451D01*
X019269Y021830D02*
X019247Y021859D01*
X019178Y021929D01*
X019098Y021987D01*
X019010Y022032D01*
X018982Y022041D01*
X019556Y022041D01*
X019528Y022032D01*
X019440Y021987D01*
X019360Y021929D01*
X019290Y021859D01*
X019269Y021830D01*
X019204Y021903D02*
X019334Y021903D01*
X018768Y021451D02*
X018768Y021450D01*
X018396Y021450D01*
X017769Y021450D01*
X017769Y021451D01*
X018396Y021451D01*
X018768Y021451D01*
X018269Y021830D02*
X018247Y021859D01*
X018178Y021929D01*
X018098Y021987D01*
X018010Y022032D01*
X017982Y022041D01*
X018556Y022041D01*
X018528Y022032D01*
X018440Y021987D01*
X018360Y021929D01*
X018290Y021859D01*
X018269Y021830D01*
X018204Y021903D02*
X018334Y021903D01*
X017768Y021451D02*
X017768Y021450D01*
X017396Y021450D01*
X016769Y021450D01*
X016769Y021451D01*
X017396Y021451D01*
X017768Y021451D01*
X017269Y021830D02*
X017247Y021859D01*
X017178Y021929D01*
X017098Y021987D01*
X017010Y022032D01*
X016982Y022041D01*
X017556Y022041D01*
X017528Y022032D01*
X017440Y021987D01*
X017360Y021929D01*
X017290Y021859D01*
X017269Y021830D01*
X017204Y021903D02*
X017334Y021903D01*
X016768Y021451D02*
X016768Y021450D01*
X016396Y021450D01*
X015769Y021450D01*
X015769Y021451D01*
X016396Y021451D01*
X016768Y021451D01*
X016269Y021830D02*
X016247Y021859D01*
X016178Y021929D01*
X016098Y021987D01*
X016010Y022032D01*
X015982Y022041D01*
X016556Y022041D01*
X016528Y022032D01*
X016440Y021987D01*
X016360Y021929D01*
X016290Y021859D01*
X016269Y021830D01*
X016204Y021903D02*
X016334Y021903D01*
X015768Y021451D02*
X015768Y021450D01*
X015141Y021450D01*
X015141Y021401D01*
X015157Y021304D01*
X015187Y021210D01*
X015232Y021122D01*
X015277Y021060D01*
X015201Y020984D01*
X014498Y020984D01*
X014530Y021016D01*
X014646Y021298D01*
X014646Y021603D01*
X014530Y021885D01*
X014374Y022041D01*
X015556Y022041D01*
X015528Y022032D01*
X015440Y021987D01*
X015360Y021929D01*
X015290Y021859D01*
X015232Y021780D01*
X015187Y021692D01*
X015157Y021598D01*
X015141Y021500D01*
X015141Y021451D01*
X015768Y021451D01*
X015334Y021903D02*
X014512Y021903D01*
X014646Y021589D02*
X015155Y021589D01*
X015166Y021276D02*
X014637Y021276D01*
X016261Y021060D02*
X016269Y021071D01*
X016277Y021060D01*
X016269Y021052D01*
X016261Y021060D01*
X017261Y021060D02*
X017269Y021071D01*
X017277Y021060D01*
X017269Y021052D01*
X017261Y021060D01*
X018261Y021060D02*
X018269Y021071D01*
X018277Y021060D01*
X018269Y021052D01*
X018261Y021060D01*
X019261Y021060D02*
X019269Y021071D01*
X019277Y021060D01*
X019269Y021052D01*
X019261Y021060D01*
X020261Y021060D02*
X020269Y021071D01*
X020277Y021060D01*
X020269Y021052D01*
X020261Y021060D01*
X012416Y022041D02*
X012411Y022036D01*
X012405Y022041D01*
X012416Y022041D01*
X012032Y020335D02*
X005818Y020335D01*
X005505Y020022D02*
X011718Y020022D01*
X011444Y019708D02*
X005191Y019708D01*
X004878Y019395D02*
X011393Y019395D01*
X011393Y019081D02*
X004564Y019081D01*
X004251Y018768D02*
X011393Y018768D01*
X011390Y018454D02*
X003963Y018454D01*
X003963Y018141D02*
X011295Y018141D01*
X011359Y017827D02*
X003963Y017827D01*
X003963Y017514D02*
X011728Y017514D01*
X016168Y011244D02*
X027809Y011244D01*
X027809Y010930D02*
X016168Y010930D01*
X016168Y010617D02*
X027809Y010617D01*
X027809Y010303D02*
X016168Y010303D01*
X016168Y009990D02*
X027809Y009990D01*
X027809Y009676D02*
X016168Y009676D01*
X016096Y009363D02*
X027809Y009363D01*
X027809Y009049D02*
X015792Y009049D01*
X015479Y008736D02*
X027809Y008736D01*
X027809Y008422D02*
X015165Y008422D01*
X014851Y008109D02*
X027809Y008109D01*
X027809Y007795D02*
X014593Y007795D01*
X014593Y007482D02*
X027809Y007482D01*
X027809Y007168D02*
X014593Y007168D01*
X014593Y006855D02*
X027809Y006855D01*
X027809Y006541D02*
X014465Y006541D01*
X014152Y006228D02*
X027809Y006228D01*
X027809Y005914D02*
X013976Y005914D01*
X012994Y005914D02*
X010736Y005914D01*
X010736Y005601D02*
X027809Y005601D01*
X027809Y005287D02*
X025279Y005287D01*
X025300Y005265D02*
X025089Y005476D01*
X024814Y005590D01*
X023810Y005590D01*
X023535Y005476D01*
X023324Y005265D01*
X023210Y004990D01*
X023210Y004691D01*
X023324Y004416D01*
X023535Y004205D01*
X023810Y004090D01*
X024814Y004090D01*
X025089Y004205D01*
X025300Y004416D01*
X025415Y004691D01*
X025415Y004990D01*
X025300Y005265D01*
X025415Y004974D02*
X027809Y004974D01*
X027809Y004660D02*
X025402Y004660D01*
X025231Y004347D02*
X027809Y004347D01*
X027809Y004033D02*
X012063Y004033D01*
X012158Y003938D02*
X010736Y005360D01*
X010736Y006614D01*
X010986Y006510D01*
X011292Y006510D01*
X011574Y006627D01*
X011789Y006843D01*
X011906Y007125D01*
X011906Y007430D01*
X011789Y007712D01*
X011574Y007928D01*
X011292Y008045D01*
X010986Y008045D01*
X010704Y007928D01*
X010639Y007863D01*
X010574Y007928D01*
X010292Y008045D01*
X009986Y008045D01*
X009704Y007928D01*
X009488Y007712D01*
X009371Y007430D01*
X009371Y007125D01*
X009488Y006843D01*
X009541Y006790D01*
X009541Y005989D01*
X009503Y006027D01*
X009277Y006121D01*
X009032Y006121D01*
X008806Y006027D01*
X008633Y005854D01*
X008597Y005767D01*
X008442Y005767D01*
X008216Y005673D01*
X008042Y005500D01*
X007949Y005274D01*
X007949Y005029D01*
X008042Y004803D01*
X008047Y004799D01*
X008047Y003752D01*
X007365Y003071D01*
X003799Y003071D01*
X003794Y003075D01*
X003568Y003168D01*
X003324Y003168D01*
X003097Y003075D01*
X002924Y002902D01*
X002831Y002675D01*
X002831Y002431D01*
X002902Y002258D01*
X002831Y002085D01*
X002831Y001840D01*
X002924Y001614D01*
X003097Y001441D01*
X003324Y001347D01*
X003568Y001347D01*
X003794Y001441D01*
X003799Y001445D01*
X007674Y001445D01*
X007880Y001445D01*
X008070Y001524D01*
X009593Y003047D01*
X009672Y003238D01*
X009672Y003443D01*
X009672Y004734D01*
X009800Y004606D01*
X011572Y002834D01*
X011792Y002743D01*
X012029Y002743D01*
X014698Y002743D01*
X014741Y002725D01*
X014986Y002725D01*
X015212Y002819D01*
X015385Y002992D01*
X015479Y003218D01*
X015479Y003463D01*
X015385Y003689D01*
X015212Y003862D01*
X014986Y003956D01*
X014741Y003956D01*
X014698Y003938D01*
X012158Y003938D01*
X011749Y004347D02*
X023393Y004347D01*
X023222Y004660D02*
X011436Y004660D01*
X011122Y004974D02*
X023210Y004974D01*
X023346Y005287D02*
X010809Y005287D01*
X010059Y004347D02*
X009672Y004347D01*
X009672Y004033D02*
X010373Y004033D01*
X010686Y003720D02*
X009672Y003720D01*
X009672Y003406D02*
X011000Y003406D01*
X011313Y003093D02*
X009612Y003093D01*
X009325Y002779D02*
X010041Y002779D01*
X010089Y002787D02*
X009992Y002771D01*
X009898Y002741D01*
X009810Y002696D01*
X009730Y002638D01*
X009660Y002568D01*
X009602Y002488D01*
X009557Y002400D01*
X009527Y002306D01*
X009511Y002209D01*
X009511Y002160D01*
X010138Y002160D01*
X010138Y002159D01*
X009511Y002159D01*
X009511Y002110D01*
X009527Y002012D01*
X009557Y001918D01*
X009602Y001830D01*
X009660Y001751D01*
X009730Y001681D01*
X009810Y001623D01*
X009898Y001578D01*
X009992Y001547D01*
X010089Y001532D01*
X010139Y001532D01*
X010188Y001532D01*
X010286Y001547D01*
X010380Y001578D01*
X010468Y001623D01*
X010539Y001674D01*
X010704Y001509D01*
X010986Y001392D01*
X011292Y001392D01*
X011574Y001509D01*
X011789Y001725D01*
X011906Y002007D01*
X011906Y002312D01*
X011789Y002594D01*
X011574Y002810D01*
X011292Y002927D01*
X010986Y002927D01*
X010704Y002810D01*
X010539Y002644D01*
X010468Y002696D01*
X010380Y002741D01*
X010286Y002771D01*
X010188Y002787D01*
X010139Y002787D01*
X010139Y002160D01*
X010139Y002160D01*
X010139Y002787D01*
X010089Y002787D01*
X010139Y002779D02*
X010139Y002779D01*
X010237Y002779D02*
X010673Y002779D01*
X010139Y002466D02*
X010139Y002466D01*
X010139Y002159D02*
X010139Y001532D01*
X010139Y002159D01*
X010139Y002159D01*
X010139Y002152D02*
X010139Y002152D01*
X010139Y001839D02*
X010139Y001839D01*
X009598Y001839D02*
X008385Y001839D01*
X008071Y001525D02*
X010688Y001525D01*
X011590Y001525D02*
X023278Y001525D01*
X023210Y001839D02*
X011837Y001839D01*
X011906Y002152D02*
X023277Y002152D01*
X023524Y002466D02*
X011843Y002466D01*
X011704Y002779D02*
X011604Y002779D01*
X009591Y002466D02*
X009012Y002466D01*
X008698Y002152D02*
X009511Y002152D01*
X008015Y003720D02*
X001524Y003720D01*
X001524Y004033D02*
X008047Y004033D01*
X008047Y004347D02*
X001524Y004347D01*
X001524Y004660D02*
X008047Y004660D01*
X007972Y004974D02*
X001524Y004974D01*
X001524Y005287D02*
X007954Y005287D01*
X008143Y005601D02*
X001524Y005601D01*
X001524Y005914D02*
X008693Y005914D01*
X009541Y006228D02*
X001524Y006228D01*
X001524Y006541D02*
X004202Y006541D01*
X004278Y006510D02*
X004583Y006510D01*
X004865Y006627D01*
X005081Y006843D01*
X005198Y007125D01*
X005198Y007430D01*
X005081Y007712D01*
X004865Y007928D01*
X004583Y008045D01*
X004278Y008045D01*
X003995Y007928D01*
X003830Y007763D01*
X003759Y007814D01*
X003671Y007859D01*
X003577Y007889D01*
X003480Y007905D01*
X003430Y007905D01*
X003381Y007905D01*
X003283Y007889D01*
X003189Y007859D01*
X003101Y007814D01*
X003021Y007756D01*
X002952Y007686D01*
X002894Y007606D01*
X002849Y007518D01*
X002818Y007424D01*
X002803Y007327D01*
X002803Y007278D01*
X003430Y007278D01*
X003430Y007905D01*
X003430Y007278D01*
X003430Y007278D01*
X003430Y007277D01*
X003430Y007277D01*
X003430Y006650D01*
X003381Y006650D01*
X003283Y006665D01*
X003189Y006696D01*
X003101Y006741D01*
X003021Y006799D01*
X002952Y006869D01*
X002894Y006949D01*
X002849Y007037D01*
X002818Y007131D01*
X002803Y007228D01*
X002803Y007277D01*
X003430Y007277D01*
X003430Y006650D01*
X003480Y006650D01*
X003577Y006665D01*
X003671Y006696D01*
X003759Y006741D01*
X003830Y006792D01*
X003995Y006627D01*
X004278Y006510D01*
X004658Y006541D02*
X009541Y006541D01*
X009483Y006855D02*
X005086Y006855D01*
X005198Y007168D02*
X009371Y007168D01*
X009393Y007482D02*
X005176Y007482D01*
X004998Y007795D02*
X009571Y007795D01*
X010736Y006541D02*
X010911Y006541D01*
X010736Y006228D02*
X012870Y006228D01*
X012922Y006541D02*
X011367Y006541D01*
X011794Y006855D02*
X013233Y006855D01*
X013558Y007168D02*
X011906Y007168D01*
X011885Y007482D02*
X013558Y007482D01*
X013558Y007795D02*
X011707Y007795D01*
X013558Y008109D02*
X001524Y008109D01*
X001524Y008422D02*
X013701Y008422D01*
X014015Y008736D02*
X001524Y008736D01*
X001524Y007795D02*
X003075Y007795D01*
X003430Y007795D02*
X003430Y007795D01*
X003430Y007482D02*
X003430Y007482D01*
X003430Y007168D02*
X003430Y007168D01*
X003430Y006855D02*
X003430Y006855D01*
X002966Y006855D02*
X001524Y006855D01*
X001524Y007168D02*
X002812Y007168D01*
X002837Y007482D02*
X001524Y007482D01*
X003785Y007795D02*
X003863Y007795D01*
X001524Y003406D02*
X007701Y003406D01*
X007388Y003093D02*
X003751Y003093D01*
X003141Y003093D02*
X001524Y003093D01*
X001524Y002779D02*
X002874Y002779D01*
X002831Y002466D02*
X001524Y002466D01*
X001524Y002152D02*
X002859Y002152D01*
X002831Y001839D02*
X001524Y001839D01*
X001524Y001525D02*
X003013Y001525D01*
X009672Y004660D02*
X009746Y004660D01*
X015116Y002779D02*
X027809Y002779D01*
X027809Y003093D02*
X015427Y003093D01*
X015479Y003406D02*
X027809Y003406D01*
X027809Y003720D02*
X015354Y003720D01*
X013348Y009363D02*
X012906Y009363D01*
X025100Y002466D02*
X027809Y002466D01*
X027809Y002152D02*
X025347Y002152D01*
X025415Y001839D02*
X027809Y001839D01*
X027809Y001525D02*
X025346Y001525D01*
D18*
X027068Y001963D03*
X002265Y021451D03*
D19*
X010139Y007277D02*
X010139Y005112D01*
X011911Y003340D01*
X014863Y003340D01*
M02*
