G75*
G70*
%OFA0B0*%
%FSLAX24Y24*%
%IPPOS*%
%LPD*%
%AMOC8*
5,1,8,0,0,1.08239X$1,22.5*
%
%ADD10R,0.0669X0.0472*%
%ADD11R,0.0472X0.0669*%
%ADD12R,0.0378X0.0417*%
%ADD13R,0.0516X0.0260*%
%ADD14R,0.0693X0.0614*%
%ADD15R,0.0835X0.0756*%
%ADD16R,0.0614X0.0693*%
%ADD17OC8,0.0992*%
%ADD18R,0.0661X0.1291*%
%ADD19R,0.0888X0.0888*%
%ADD20C,0.0888*%
%ADD21R,0.1872X0.1872*%
%ADD22R,0.1500X0.1500*%
%ADD23R,0.0472X0.0630*%
%ADD24R,0.0550X0.0300*%
%ADD25R,0.1200X0.1450*%
%ADD26R,0.0378X0.0378*%
%ADD27R,0.0756X0.0835*%
%ADD28R,0.0913X0.0283*%
%ADD29R,0.0852X0.0312*%
%ADD30R,0.1717X0.1323*%
%ADD31C,0.0846*%
%ADD32R,0.1213X0.1134*%
%ADD33C,0.0523*%
%ADD34OC8,0.1519*%
D10*
X013268Y007081D03*
X014097Y007081D03*
X022914Y014364D03*
X023742Y014364D03*
X023742Y016923D03*
X022914Y016923D03*
X010160Y015939D03*
X009331Y015939D03*
D11*
X009155Y014778D03*
X009155Y013950D03*
X009155Y013007D03*
X009155Y012178D03*
X010139Y013950D03*
X010139Y014778D03*
X011871Y018989D03*
X012816Y018989D03*
X012816Y019818D03*
X011871Y019818D03*
X025493Y015763D03*
X025493Y014934D03*
X025493Y013991D03*
X025493Y013162D03*
X002265Y006117D03*
X002265Y005288D03*
X002265Y004149D03*
X002265Y003320D03*
D12*
X022954Y013577D03*
X023702Y013577D03*
X023328Y012750D03*
X023328Y015309D03*
X023702Y016136D03*
X022954Y016136D03*
D13*
X017501Y016077D03*
X017501Y015329D03*
X016477Y015329D03*
X016477Y015703D03*
X016477Y016077D03*
D14*
X014777Y016797D03*
X014777Y017545D03*
X019383Y016077D03*
X019383Y015329D03*
X010139Y012966D03*
X010139Y012218D03*
X018800Y005289D03*
X018800Y004541D03*
X013289Y004502D03*
X013289Y003754D03*
D15*
X020777Y015151D03*
X020777Y016254D03*
X013414Y016620D03*
X013414Y017722D03*
D16*
X017615Y013612D03*
X018363Y013612D03*
X014056Y008065D03*
X013308Y008065D03*
D17*
X013970Y009888D03*
X010033Y009888D03*
X005111Y009888D03*
X003143Y009888D03*
D18*
X019785Y010388D03*
X019785Y008498D03*
X022737Y008498D03*
X022737Y010388D03*
X019785Y003695D03*
X019785Y001805D03*
D19*
X023918Y020466D03*
X023918Y021451D03*
D20*
X024918Y021451D03*
X025918Y021451D03*
X026918Y021451D03*
X026918Y020466D03*
X025918Y020466D03*
X024918Y020466D03*
X024903Y019285D03*
X023918Y019285D03*
X023918Y018285D03*
X024903Y018285D03*
X020769Y020466D03*
X019769Y020466D03*
X018769Y020466D03*
X017769Y020466D03*
X016769Y020466D03*
X015769Y020466D03*
X015769Y021451D03*
X016769Y021451D03*
X017769Y021451D03*
X018769Y021451D03*
X019769Y021451D03*
X020769Y021451D03*
X013879Y021451D03*
X012911Y021451D03*
X011911Y021451D03*
X011139Y007277D03*
X010139Y007277D03*
X004430Y007277D03*
X003430Y007277D03*
X010139Y002159D03*
X011139Y002159D03*
D21*
X006163Y019955D03*
D22*
X009263Y019955D03*
X003063Y019955D03*
D23*
X009371Y016884D03*
X010119Y016884D03*
X009745Y017750D03*
D24*
X007606Y006098D03*
X007606Y005598D03*
X007606Y005098D03*
X007606Y004598D03*
X005506Y004598D03*
X005506Y005098D03*
X005506Y005598D03*
X005506Y006098D03*
D25*
X006556Y005348D03*
D26*
X002166Y001963D03*
X002757Y001963D03*
X002757Y002553D03*
X002166Y002553D03*
D27*
X010375Y005506D03*
X011477Y005506D03*
D28*
X007895Y012968D03*
X007895Y013468D03*
X007895Y013968D03*
X007895Y014468D03*
X007895Y014968D03*
X007895Y015468D03*
X007895Y015968D03*
X007895Y016468D03*
X004273Y016468D03*
X004273Y015968D03*
X004273Y015468D03*
X004273Y014968D03*
X004273Y014468D03*
X004273Y013968D03*
X004273Y013468D03*
X004273Y012968D03*
D29*
X015228Y007043D03*
X015228Y006543D03*
X015228Y006043D03*
X015228Y005543D03*
X017648Y005543D03*
X017648Y006043D03*
X017648Y006543D03*
X017648Y007043D03*
D30*
X025887Y006608D03*
X025887Y009522D03*
D31*
X024665Y004840D02*
X023960Y004840D01*
X023960Y001840D02*
X024665Y001840D01*
D32*
X012107Y003695D03*
X009588Y003695D03*
D33*
X008564Y005151D03*
X009155Y005506D03*
X012304Y005309D03*
X013485Y006293D03*
X014863Y007671D03*
X018210Y007671D03*
X021359Y007671D03*
X023918Y007671D03*
X024706Y012396D03*
X024706Y013774D03*
X024706Y014955D03*
X024706Y016923D03*
X022737Y021648D03*
X016241Y017120D03*
X015651Y018695D03*
X013879Y018695D03*
X011911Y018104D03*
X012107Y014758D03*
X010926Y014758D03*
X010926Y012986D03*
X012698Y012986D03*
X013485Y011805D03*
X016241Y014364D03*
X006399Y008852D03*
X002265Y007277D03*
X004627Y004915D03*
X003446Y002553D03*
X003446Y001963D03*
X012304Y002159D03*
X014863Y003340D03*
X015848Y002159D03*
X002855Y012986D03*
X003446Y013577D03*
X004233Y017317D03*
D34*
X002265Y021451D03*
X027068Y001963D03*
M02*
