G75*
G70*
%OFA0B0*%
%FSLAX24Y24*%
%IPPOS*%
%LPD*%
%AMOC8*
5,1,8,0,0,1.08239X$1,22.5*
%
%ADD10OC8,0.0992*%
%ADD11R,0.0888X0.0888*%
%ADD12C,0.0888*%
%ADD13C,0.0846*%
%ADD14C,0.0523*%
%ADD15OC8,0.1519*%
D10*
X003143Y009888D03*
X005111Y009888D03*
X010033Y009888D03*
X013970Y009888D03*
D11*
X023918Y020466D03*
X023918Y021451D03*
D12*
X024918Y021451D03*
X025918Y021451D03*
X026918Y021451D03*
X026918Y020466D03*
X025918Y020466D03*
X024918Y020466D03*
X024903Y019285D03*
X023918Y019285D03*
X023918Y018285D03*
X024903Y018285D03*
X020769Y020466D03*
X019769Y020466D03*
X018769Y020466D03*
X017769Y020466D03*
X016769Y020466D03*
X015769Y020466D03*
X015769Y021451D03*
X016769Y021451D03*
X017769Y021451D03*
X018769Y021451D03*
X019769Y021451D03*
X020769Y021451D03*
X013879Y021451D03*
X012911Y021451D03*
X011911Y021451D03*
X011139Y007277D03*
X010139Y007277D03*
X004430Y007277D03*
X003430Y007277D03*
X010139Y002159D03*
X011139Y002159D03*
D13*
X023960Y001840D02*
X024665Y001840D01*
X024665Y004840D02*
X023960Y004840D01*
D14*
X003446Y001963D03*
X003446Y002553D03*
X004627Y004915D03*
X002265Y007277D03*
X006399Y008852D03*
X009155Y005506D03*
X008564Y005151D03*
X012304Y005309D03*
X013485Y006293D03*
X014863Y007671D03*
X018210Y007671D03*
X021359Y007671D03*
X023918Y007671D03*
X024706Y012396D03*
X024706Y013774D03*
X024706Y014955D03*
X024706Y016923D03*
X022737Y021648D03*
X016241Y017120D03*
X015651Y018695D03*
X013879Y018695D03*
X011911Y018104D03*
X012107Y014758D03*
X010926Y014758D03*
X010926Y012986D03*
X012698Y012986D03*
X013485Y011805D03*
X016241Y014364D03*
X004233Y017317D03*
X003446Y013577D03*
X002855Y012986D03*
X014863Y003340D03*
X015848Y002159D03*
X012304Y002159D03*
D15*
X027068Y001963D03*
X002265Y021451D03*
M02*
