%
M48
M72
T01C0.0276
T02C0.0400
T03C0.0470
T04C0.0551
T05C0.0866
%
T01
X3446Y1963
X3446Y2553
X4627Y4915
X2265Y7277
X6399Y8852
X9155Y5506
X8564Y5151
X12304Y5309
X13485Y6293
X14863Y7671
X18210Y7671
X21359Y7671
X23918Y7671
X24706Y12396
X24706Y13774
X24706Y14955
X24706Y16923
X22737Y21648
X16241Y17120
X15651Y18695
X13879Y18695
X11911Y18104
X12107Y14758
X10926Y14758
X10926Y12986
X12698Y12986
X13485Y11805
X16241Y14364
X4233Y17317
X3446Y13577
X2855Y12986
X14863Y3340
X15848Y2159
X12304Y2159
T02
X11139Y2159
X10139Y2159
X10139Y7277
X11139Y7277
X4430Y7277
X3430Y7277
X15769Y20466
X16769Y20466
X17769Y20466
X18769Y20466
X19769Y20466
X20769Y20466
X20769Y21451
X19769Y21451
X18769Y21451
X17769Y21451
X16769Y21451
X15769Y21451
X13879Y21451
X12911Y21451
X11911Y21451
X23918Y21451
X24918Y21451
X25918Y21451
X26918Y21451
X26918Y20466
X25918Y20466
X24918Y20466
X23918Y20466
X23918Y19285
X24903Y19285
X24903Y18285
X23918Y18285
T03
X24312Y4840
X24312Y1840
T04
X13970Y9888
X10033Y9888
X5111Y9888
X3143Y9888
T05
X2265Y21451
X27068Y1963
M30
